<svg xmlns="http://www.w3.org/2000/svg" xmlns:xlink="http://www.w3.org/1999/xlink" width="512" zoomAndPan="magnify" viewBox="0 0 384 383.999986" height="512" preserveAspectRatio="xMidYMid meet" version="1.0"><defs><g/><clipPath id="id1"><path d="M 296.40625 32.800781 L 384 32.800781 L 384 121.300781 L 296.40625 121.300781 Z M 296.40625 32.800781 " clip-rule="nonzero"/></clipPath></defs><g fill="#fe1d59" fill-opacity="1"><g transform="translate(0.0000072, 288.722065)"><g><path d="M 146.421875 -147.921875 C 141.972656 -146.921875 138.671875 -145.378906 136.515625 -143.296875 C 134.367188 -141.222656 132.9375 -138.035156 132.21875 -133.734375 C 131.507812 -129.429688 131.15625 -122.976562 131.15625 -114.375 L 131.15625 -62.5625 C 131.15625 -41.925781 128.210938 -26.734375 122.328125 -16.984375 C 118.460938 -10.535156 112.765625 -5.585938 105.234375 -2.140625 C 97.710938 1.296875 88.003906 3.015625 76.109375 3.015625 C 58.765625 3.015625 45.289062 -0.425781 35.6875 -7.3125 C 28.664062 -12.320312 23.972656 -19.054688 21.609375 -27.515625 C 19.242188 -35.972656 18.0625 -47.441406 18.0625 -61.921875 L 18.0625 -129.4375 C 18.0625 -134.875 17.703125 -138.8125 16.984375 -141.25 C 16.265625 -143.6875 14.863281 -145.332031 12.78125 -146.1875 C 10.707031 -147.050781 7.378906 -147.628906 2.796875 -147.921875 L 2.796875 -152.21875 C 10.960938 -151.789062 23.578125 -151.578125 40.640625 -151.578125 C 57.546875 -151.578125 70.375 -151.789062 79.125 -152.21875 L 79.125 -147.921875 C 73.957031 -147.628906 70.191406 -147.050781 67.828125 -146.1875 C 65.460938 -145.332031 63.847656 -143.6875 62.984375 -141.25 C 62.128906 -138.8125 61.703125 -134.875 61.703125 -129.4375 L 61.703125 -41.703125 C 61.703125 -27.941406 63.851562 -18.300781 68.15625 -12.78125 C 72.457031 -7.269531 79.265625 -4.515625 88.578125 -4.515625 C 102.191406 -4.515625 111.863281 -9.351562 117.59375 -19.03125 C 123.332031 -28.707031 126.203125 -42.429688 126.203125 -60.203125 L 126.203125 -110.078125 C 126.203125 -120.679688 125.769531 -128.3125 124.90625 -132.96875 C 124.050781 -137.632812 122.15625 -141.039062 119.21875 -143.1875 C 116.28125 -145.34375 111.367188 -146.921875 104.484375 -147.921875 L 104.484375 -152.21875 C 110.367188 -151.789062 118.394531 -151.578125 128.5625 -151.578125 C 136.164062 -151.578125 142.117188 -151.789062 146.421875 -152.21875 Z M 146.421875 -147.921875 "/></g></g></g><g fill="#fe1d59" fill-opacity="1"><g transform="translate(148.996495, 288.722065)"><g><path d="M 137.59375 -18.0625 C 139.457031 -13.476562 141.5 -10.070312 143.71875 -7.84375 C 145.945312 -5.625 148.132812 -4.441406 150.28125 -4.296875 L 150.28125 0 C 139.96875 -0.425781 126.925781 -0.640625 111.15625 -0.640625 C 94.8125 -0.640625 82.769531 -0.425781 75.03125 0 L 75.03125 -4.296875 C 80.476562 -4.585938 84.347656 -5.269531 86.640625 -6.34375 C 88.929688 -7.414062 90.078125 -9.316406 90.078125 -12.046875 C 90.078125 -14.617188 89.21875 -18.054688 87.5 -22.359375 L 74.8125 -57.625 L 31.390625 -57.625 L 27.734375 -47.9375 C 23.003906 -35.757812 20.640625 -26.445312 20.640625 -20 C 20.640625 -14.125 22.285156 -10.109375 25.578125 -7.953125 C 28.878906 -5.804688 33.753906 -4.585938 40.203125 -4.296875 L 40.203125 0 C 29.453125 -0.425781 20.066406 -0.640625 12.046875 -0.640625 C 5.304688 -0.640625 -0.210938 -0.425781 -4.515625 0 L -4.515625 -4.296875 C -0.929688 -4.867188 2.429688 -7.085938 5.578125 -10.953125 C 8.734375 -14.828125 11.960938 -20.992188 15.265625 -29.453125 L 63 -152.21875 C 67.582031 -151.9375 71.378906 -151.796875 74.390625 -151.796875 C 77.253906 -151.796875 80.976562 -151.9375 85.5625 -152.21875 Z M 73.3125 -61.921875 L 53.75 -115.671875 L 33.109375 -61.921875 Z M 73.3125 -61.921875 "/></g></g></g><g fill="#fe1d59" fill-opacity="1"><g transform="translate(297.777951, 288.722065)"><g><path d="M 80.1875 -147.921875 C 75.601562 -147.628906 72.269531 -147.050781 70.1875 -146.1875 C 68.113281 -145.332031 66.71875 -143.6875 66 -141.25 C 65.289062 -138.8125 64.9375 -134.875 64.9375 -129.4375 L 64.9375 -22.796875 C 64.9375 -17.347656 65.328125 -13.40625 66.109375 -10.96875 C 66.898438 -8.53125 68.296875 -6.878906 70.296875 -6.015625 C 72.304688 -5.160156 75.601562 -4.585938 80.1875 -4.296875 L 80.1875 0 C 71.875 -0.425781 59.910156 -0.640625 44.296875 -0.640625 C 26.953125 -0.640625 14.191406 -0.425781 6.015625 0 L 6.015625 -4.296875 C 10.609375 -4.585938 13.941406 -5.160156 16.015625 -6.015625 C 18.097656 -6.878906 19.492188 -8.53125 20.203125 -10.96875 C 20.921875 -13.40625 21.28125 -17.347656 21.28125 -22.796875 L 21.28125 -129.4375 C 21.28125 -134.875 20.882812 -138.8125 20.09375 -141.25 C 19.3125 -143.6875 17.914062 -145.332031 15.90625 -146.1875 C 13.90625 -147.050781 10.609375 -147.628906 6.015625 -147.921875 L 6.015625 -152.21875 C 14.191406 -151.789062 26.953125 -151.578125 44.296875 -151.578125 C 59.773438 -151.578125 71.738281 -151.789062 80.1875 -152.21875 Z M 80.1875 -147.921875 "/></g></g></g><g clip-path="url(#id1)"><path fill="#ff471a" d="M 340.660156 35.410156 C 335.039062 35.410156 329.582031 36.511719 324.449219 38.679688 C 319.492188 40.777344 315.035156 43.78125 311.210938 47.605469 C 307.386719 51.433594 304.382812 55.886719 302.285156 60.847656 C 300.113281 65.980469 299.011719 71.433594 299.011719 77.054688 C 299.011719 82.679688 300.113281 88.132812 302.285156 93.265625 C 304.382812 98.226562 307.386719 102.679688 311.210938 106.503906 C 315.035156 110.328125 319.492188 113.332031 324.449219 115.429688 C 329.582031 117.601562 335.039062 118.703125 340.660156 118.703125 C 346.28125 118.703125 351.738281 117.601562 356.871094 115.429688 C 361.832031 113.332031 366.285156 110.328125 370.109375 106.503906 C 373.933594 102.679688 376.9375 98.226562 379.035156 93.265625 C 381.207031 88.132812 382.308594 82.679688 382.308594 77.054688 C 382.308594 71.433594 381.207031 65.980469 379.035156 60.847656 C 376.9375 55.886719 373.933594 51.433594 370.109375 47.605469 C 366.285156 43.78125 361.832031 40.777344 356.871094 38.679688 C 351.738281 36.511719 346.28125 35.410156 340.660156 35.410156 Z M 340.660156 121.3125 C 334.6875 121.3125 328.890625 120.140625 323.433594 117.832031 C 318.164062 115.605469 313.429688 112.414062 309.367188 108.351562 C 305.300781 104.285156 302.113281 99.554688 299.882812 94.28125 C 297.574219 88.824219 296.40625 83.03125 296.40625 77.054688 C 296.40625 71.082031 297.574219 65.285156 299.882812 59.828125 C 302.113281 54.558594 305.300781 49.828125 309.367188 45.761719 C 313.429688 41.699219 318.164062 38.507812 323.433594 36.277344 C 328.890625 33.972656 334.6875 32.800781 340.660156 32.800781 C 346.636719 32.800781 352.429688 33.972656 357.886719 36.277344 C 363.15625 38.507812 367.890625 41.699219 371.953125 45.761719 C 376.015625 49.828125 379.207031 54.558594 381.4375 59.828125 C 383.746094 65.285156 384.917969 71.082031 384.917969 77.054688 C 384.917969 83.03125 383.746094 88.824219 381.4375 94.28125 C 379.207031 99.554688 376.015625 104.285156 371.953125 108.351562 C 367.890625 112.414062 363.15625 115.605469 357.886719 117.832031 C 352.429688 120.140625 346.636719 121.3125 340.660156 121.3125 " fill-opacity="1" fill-rule="nonzero"/></g><path fill="#ff471a" d="M 340.660156 45.21875 C 332.15625 45.21875 324.160156 48.53125 318.148438 54.542969 C 312.136719 60.558594 308.824219 68.550781 308.824219 77.054688 C 308.824219 85.558594 312.136719 93.554688 318.148438 99.566406 C 324.160156 105.582031 332.15625 108.890625 340.660156 108.890625 C 349.164062 108.890625 357.160156 105.582031 363.171875 99.566406 C 369.183594 93.554688 372.496094 85.558594 372.496094 77.054688 C 372.496094 68.550781 369.183594 60.558594 363.171875 54.542969 C 357.160156 48.53125 349.164062 45.21875 340.660156 45.21875 Z M 340.660156 111.5 C 336.011719 111.5 331.5 110.589844 327.253906 108.792969 C 323.152344 107.058594 319.46875 104.574219 316.304688 101.410156 C 313.140625 98.25 310.660156 94.566406 308.921875 90.464844 C 307.128906 86.214844 306.214844 81.707031 306.214844 77.054688 C 306.214844 72.40625 307.128906 67.894531 308.921875 63.648438 C 310.660156 59.546875 313.140625 55.863281 316.304688 52.699219 C 319.46875 49.535156 323.152344 47.054688 327.253906 45.320312 C 331.5 43.523438 336.011719 42.613281 340.660156 42.613281 C 345.308594 42.613281 349.820312 43.523438 354.066406 45.320312 C 358.167969 47.054688 361.855469 49.535156 365.015625 52.699219 C 368.179688 55.863281 370.664062 59.546875 372.398438 63.648438 C 374.195312 67.894531 375.105469 72.40625 375.105469 77.054688 C 375.105469 81.707031 374.195312 86.214844 372.398438 90.464844 C 370.664062 94.566406 368.179688 98.25 365.015625 101.410156 C 361.855469 104.574219 358.167969 107.058594 354.066406 108.792969 C 349.820312 110.589844 345.308594 111.5 340.660156 111.5 " fill-opacity="1" fill-rule="nonzero"/><path fill="#ff471a" d="M 339.171875 103.246094 L 339.171875 96.601562 C 335.757812 96.601562 331.898438 95.527344 329.558594 93.628906 L 330.949219 91.226562 C 333.101562 92.933594 336.328125 94.136719 339.742188 94.136719 C 345.121094 94.136719 348.789062 90.847656 348.789062 86.609375 C 348.789062 82.496094 345.816406 80.027344 340.882812 78.003906 C 333.605469 75.03125 330.316406 72.183594 330.316406 67.1875 C 330.316406 62.253906 333.988281 58.394531 339.804688 57.632812 L 339.804688 50.867188 L 342.464844 50.867188 L 342.464844 57.632812 C 346.257812 57.761719 348.726562 58.898438 350.5625 60.101562 L 349.167969 62.507812 C 347.96875 61.683594 345.375 60.101562 341.261719 60.101562 C 335.378906 60.101562 333.226562 63.769531 333.226562 66.808594 C 333.226562 70.539062 335.632812 72.5 341.703125 75.03125 C 347.96875 77.6875 351.761719 80.660156 351.761719 86.417969 C 351.761719 90.59375 348.664062 95.589844 341.832031 96.601562 L 341.832031 103.246094 L 339.171875 103.246094 " fill-opacity="1" fill-rule="nonzero"/></svg>